/* XPM */
static char *c3d7d970ca0342f8a4151b08c85ef8b32EYZKWLhmwJrSNMS[] = {
/* columns rows colors chars-per-pixel */
"64 64 244 2 ",
"   c None",
".  c #022D02",
"X  c #083905",
"o  c #143403",
"O  c #173C07",
"+  c #163306",
"@  c #203D13",
"#  c #03440A",
"$  c #0A490A",
"%  c #184608",
"&  c #0D550E",
"*  c #14540D",
"=  c #19580C",
"-  c #195915",
";  c #224B09",
":  c #275809",
">  c #2B5916",
",  c #2B5215",
"<  c #1B650E",
"1  c #1A6813",
"2  c #157013",
"3  c #28650B",
"4  c #35680B",
"5  c #3A780D",
"6  c #276615",
"7  c #356B13",
"8  c #35641B",
"9  c #386918",
"0  c #297819",
"q  c #3B7618",
"w  c #28700D",
"e  c #335924",
"r  c #3C6825",
"t  c #3C7527",
"y  c #266F22",
"u  c #407A1A",
"i  c #4A750A",
"p  c #457C24",
"a  c #457C2A",
"s  c #467828",
"d  c #4B6A39",
"f  c #4D7835",
"g  c #497330",
"h  c #477676",
"j  c #527041",
"k  c #298319",
"l  c #3B861B",
"z  c #37991D",
"x  c #38B21B",
"c  c #37AA1C",
"v  c #388A28",
"b  c #3A972A",
"n  c #3E9634",
"m  c #308828",
"M  c #3CAA2E",
"N  c #47891B",
"B  c #559A1A",
"V  c #4F8C12",
"C  c #759C0D",
"Z  c #679410",
"A  c #58A817",
"S  c #5AB51B",
"D  c #53B606",
"F  c #79A40E",
"G  c #7AB918",
"H  c #67B017",
"J  c #468323",
"K  c #4C8525",
"L  c #4B832C",
"P  c #498826",
"I  c #528A2C",
"U  c #489525",
"Y  c #559A27",
"T  c #4A8735",
"R  c #548933",
"E  c #499636",
"W  c #5A9735",
"Q  c #639C3A",
"!  c #609D2F",
"~  c #47AA2A",
"^  c #5BA72A",
"/  c #4BBA2A",
"(  c #58B729",
")  c #4AA938",
"_  c #56AA39",
"`  c #4BB634",
"'  c #57B937",
"]  c #65A92B",
"[  c #65A82A",
"{  c #63BC2D",
"}  c #69B82B",
"|  c #74BD2A",
" . c #69A738",
".. c #72AA3C",
"X. c #66BD32",
"o. c #69BE35",
"O. c #6BBE39",
"+. c #68B536",
"@. c #75B939",
"#. c #79AD28",
"$. c #69C328",
"%. c #6DC335",
"&. c #6DC13A",
"*. c #70C33D",
"=. c #73C83A",
"-. c #75C726",
";. c #5AC22C",
":. c #4C9744",
">. c #569847",
",. c #599A59",
"<. c #5E8A49",
"1. c #669D45",
"2. c #5BA948",
"3. c #59B645",
"4. c #58A64E",
"5. c #68A846",
"6. c #74AA49",
"7. c #66B648",
"8. c #7BBA42",
"9. c #78B548",
"0. c #79AB54",
"q. c #6AB655",
"w. c #78B658",
"e. c #4D826C",
"r. c #528B65",
"t. c #77B963",
"y. c #749C76",
"u. c #5DC24C",
"i. c #67C649",
"p. c #72C342",
"a. c #7AC648",
"s. c #7AC658",
"d. c #74D655",
"f. c #72D252",
"g. c #7CC267",
"h. c #7FC771",
"j. c #8DB40F",
"k. c #83B437",
"l. c #97C719",
"z. c #93CF1D",
"x. c #A5CA14",
"c. c #A9D819",
"v. c #B8DA15",
"b. c #ACC90F",
"n. c #B8E318",
"m. c #8BC629",
"M. c #8FD02F",
"N. c #A6D636",
"B. c #ACD628",
"V. c #B8E628",
"C. c #BAE335",
"Z. c #A6E233",
"A. c #C4DE11",
"S. c #D9EE0A",
"D. c #DCF202",
"F. c #DDF30C",
"G. c #CBE412",
"H. c #C7E617",
"J. c #D4EC12",
"K. c #D2EC18",
"L. c #DCF211",
"P. c #D7F115",
"I. c #E2F503",
"U. c #E3F50C",
"Y. c #EBFA0D",
"T. c #E7F80C",
"R. c #E3F510",
"E. c #E8FB12",
"W. c #F3FF13",
"Q. c #C6E728",
"!. c #CAE736",
"~. c #83B94A",
"^. c #8DBC5C",
"/. c #86B857",
"(. c #8AB75C",
"). c #8ABA63",
"_. c #91BD67",
"`. c #8CBC76",
"'. c #83C54A",
"]. c #85CA5B",
"[. c #88CC5F",
"{. c #88C756",
"}. c #97CA5B",
"|. c #8FD550",
" X c #ADD54C",
".X c #B8E959",
"XX c #B3E34E",
"oX c #89C968",
"OX c #94C464",
"+X c #98C968",
"@X c #95D36A",
"#X c #88CA74",
"$X c #9AC877",
"%X c #8DD278",
"&X c #96D477",
"*X c #8ED264",
"=X c #A2D368",
"-X c #A2CD7A",
";X c #A4D57B",
":X c #B1E873",
">X c #86E055",
",X c #C8EC4E",
"<X c #CAE972",
"1X c #9CB790",
"2X c #A6BC9A",
"3X c #B0BDA7",
"4X c #99DA87",
"5X c #96D28A",
"6X c #A6CB88",
"7X c #A4D482",
"8X c #A8D888",
"9X c #ADDC91",
"0X c #B4DC99",
"qX c #ABC795",
"wX c #9DE494",
"eX c #A7E697",
"rX c #B2E39C",
"tX c #AEEA89",
"yX c #BCD9A7",
"uX c #B6D5B4",
"iX c #B4CCAD",
"pX c #ACE8A3",
"aX c #BBE2A3",
"sX c #B5E7A6",
"dX c #B8E7B7",
"fX c #C5E597",
"gX c #C5DAB6",
"hX c #C3CCBB",
"jX c #C2E6AC",
"kX c #C8E7B8",
"lX c #D1ECBE",
"zX c #BEE6C2",
"xX c #CAD4C2",
"cX c #C9E5C8",
"vX c #D3ECC5",
"bX c #D8EDCB",
"nX c #DAEED2",
"mX c #E3F2DA",
"MX c #E4ECDC",
"NX c #EBF6E5",
"BX c #F2F9EE",
"VX c #F5FAF3",
"CX c #FEFEFD",
"ZX c #F9FCF7",
/* pixels */
"                                                    wXwXwXeXpXwXpXpXkXdXzXkX                                                    ",
"                                            4X4XwX&X:X:X.X.X,X,X,X,X,X<XfXfXkXcXcXcX                                            ",
"                                        5X%X&X.X!.K.S.D.D.D.D.D.D.I.D.I.D.F.P.,X<XjXuXxX                                        ",
"                                  oX#X%X XV.T.D.F.K.Q. X<X:X:XtXtX=X:X=XXX!.K.D.D.U.!.<XjXdXsX                                  ",
"                                oXoXN.K.T.R.v.XX@X4XeXwXeXpXeXpXpXsXsXuXuXuX2XfX<X!.L.S.P.<X9XpX                                ",
"                            q.w.|.K.I.J.B.=X`.5XeXeXrXrXrXsXaX0XyXsXkXlXkXcXcXcXcX1X$X,XJ.D.K..XeXwX                            ",
"                          7.p.V.F.F.C.OX`.5X9X0XrX9X8X7X;X$X-X$X6X7X6X0XgXkXgXcXlXkXdXuX6X XJ.D.Q.:X4X                          ",
"                      7.3.=.K.U.Q.}.#X%X9X6X-X_.OX^.^.^.).^.^._.$X$X$X;X8XqXyXgXcXgXjXsXrXy.+XV.I.L..X5X4X                      ",
"                    ' ' M.R.S.N.g.#X&X&XOX/.~.~.~.(.^.^._.OXOX$X$X-X-X7X9XqXyXuXxXhXgXgXyXeXeX5X XL.I.XX%X%X                    ",
"                  ' ' z.Y.P.@.t.$X$XOX~...~.6.~.^.^.}.+X+XOX_.+XOX$X$X-X6XyXgXgXhXhXiXgX0XyXeXtXh.}.G.D.C.%X#X                  ",
"                / M z.Y.A...s.#X_.9.} ......~.}.}.}.}.}.=X=X@X=X;XtX8X8XqXqX2XiXgXhXgX2X0X$X7X9XeX#X0.Q.I.C.#XoX                ",
"              / ~ z.Y.H.+.q.oX0.[ [  . .@.^.=X}.}.}.|.}.}.|.].'.{.*X@X:XfXlXbXhX3X2XgX0X-X7X`.-X5X4X4XoXQ.I.C.h.#X              ",
"              c G E.H.&.q.oX6.B ! [ [ 8.$X}.8.M.M.'.O.O.o.o.o.o.| X.X.X.&.{.7XvXMXhX1X-X8X-X_._.^.$X4X%X%XK.F. X#X              ",
"            x S J.P.| i.oX5.A ^ A [ ^.OX| | =.*.+.O.&.O.O.&.&.&.&.&.&.&.%.X.{ o.OXfXjX$X).-X6X(.$X6.#X5X4Xw.J.F.|.h.            ",
"          x x n.T.m.3.s.6.A ! A [ +X{.H | &.o.O.*.O.&.&.&.&.&.&.&.&.&.&.&.&.&.&.X.X.].tX=X(.).-X(._.6.$X8Xt.~.L.K.*Xg.          ",
"          x z.E.c.` s.6.A Y A [ =X=.D o.&.O.*.O.O.%.&.&.%.O.&.&.&.&.&.&.&.&.&.&.&.&.X.*.@X=X0.(.$X(.}.6.#X4Xt.N.T.C.g.          ",
"        x S L.P.' i.9.[ B A ^ @X| D O.&.&.O.&.&.&.&.&.&.O.&.&.O.O.*.&.*.O.*.&.&.&.&.&.o.X.{.}.6./.+X(././.$X#Xt.H.U.{.t.        ",
"      ~ x c.T.M.u.]...A S A }.| D &.O.&.*.&.*.&.&.*.*.&.&.%.&.O.O.X.X.X.X.X.o.&.&.&.&.&.&.X.'.~.Q (.OX_...(.%Xt.k.R.H.w.s.      ",
"      v A L.n.&.s.6.A [ B '.a.D X.*.&.X.{ { { X.{ { { +.&.*.&.X.{.bXbXbXbXmX7X{ &.&.&.&.&.&.o.a.~.6._.^._.Q `.oXt.B.U.|.t.      ",
"      k z.E.m.u.(.B ! B } [.D { p.( &.*X0XjXlXvXkX0X&Xa.{ { *.X.[.CXCXCXCXCXjX( *.&.O.&.&.%.&.o.~.k...+X9.~.6.#Xt...T.V.q.      ",
"    6 v P.G._ q.Q R V ! /.S S 8.{ &XmXCXCXCXCXCXCXCXCXBXvX@XO.X.[.CXZXCXZXCXaX{ &.&.O.&.&.&.&.O.o.'. ./.OX8...(.oXq.n.F.a.q.    ",
"    1 F W.m.E 1.s u R Q 9.A &.{ 9XCXCXCXCXCXCXCXCXCXCXCXCXjX{ O.[.CXCXCXCXCXaX{ *.&.&.&.&.&.&.&.%.@.@.../.^...6.).q.k.Y.N.q.    ",
"  0 0 x.L.Y :.a u f p 5.U ] X.*XCXCXCXCXCXCXCXZXCXCXCXCXCX].X.X.[.CXCXCXZXCXaX{ p.&.&.&.*.O.%.O.%.o.@.] ^.~.~.Q t.w.9.J.H.7.q.  ",
"  m z F.n.b n t g q L W N %.X.kXCXCXCXCXCXCXmXNXZXCXCXCXvXX.*.X.[.CXCXCXCXCXaX{ X.{ o.O.{ X.O.%.o.&.*.@...}.@.] 0.t.4.x.R.8.2.  ",
"  0 ^ E.z.n n r 8 r g l ^ %.*.NXCXCXCXCXNX*XO.*.a.&XjXZX4X{ *.X.[.CXCXCXCXCX0X( &XlXnXnXlXoX{ O.&.&.%.%.] ~.^... .t.2.M.T.m.2.  ",
"  m m.Y.$.) v r s r T 0 +.O.a.VXCXCXCXCXbX( O.*.+.{ { a.&.O.O.X.[.CXCXCXCXCX;X0XCXCXCXCXCXCX9X{ &.O.o.@.[ 8.~.@. .w.q.] U.B.2.  ",
"z m c.F.' ) a s r t L l *.O.p.NXCXCXCXCXCXaX&.{ O.*.*.o.%.O.&.X.[.CXCXCXCXCXnXZXCXCXCXCXCXCXCX&X{ *.%.%.}  .{.@.! 0.7.W J.H.3.7.",
"M m v.J.' ) t t p s l Y =.O.o.vXCXCXCXCXCXCXNX8X8.{ O.*.&.&.&.X.[.CXCXCXCXCXCXCXCXCXCXCXCXCXCXmXO.O.@.%.} [ ~.8.[ 6.5.2.H.J.+.2.",
"b b G.H.3.E s f t s l _ %.&.{ 4XCXCXCXCXCXCXCXCXNX9X&.{ &.&.&.X.[.CXCXCXCXCXCXBXjXbXCXCXCXCXCXCX@X$.&.&.| ^ 8.@.[ 1.q._ c.P.+.2.",
"l ~ P.n.M E s s s a l +.&.O.&.o.vXCXCXCXCXCXCXCXCXCXNX&XX.&.&.X.[.CXCXCXCXCXVX].( { jXCXCXCXCXCXyX( &.&.X.A @.8.[ Q 5.) x.E.o._ ",
"m U U.v.3.E v f s a l o.&.%.&.o.&.kXCXCXCXCXCXCXCXCXCXCX7X{ &.X.[.CXCXCXCXCXkX{ p.X.*XCXCXCXCXCXcXX.&.&.| A @.8.[ Q q.) x.R.%._ ",
"k ~ F.c.M :.R R s L U o.&.&.O.&.o.{ &XmXCXCXCXCXCXCXCXCXZX].%.X.[.CXCXCXCXCXaX{ O.o.a.VXCXCXCXCXbXo.&.O.} A +.@.[  .w.) z.Y.-.) ",
"k N L.c.n E I a t T U O.&.&.O.*.&.*.{ O.&XbXCXCXCXCXCXCXCXaX{ X.[.CXCXCXCXCXaX{ O.o.a.BXCXCXCXCXnX%.O.&.| A } ~.+...q.~ c.R.o.) ",
"w l P.v.n T R K p p U o.%.O.O.O.*.&.&.&.{ X.@XNXCXCXCXCXCXvX%.X.[.CXCXCXZXCXaX{ *.%.a.VXCXCXCXCXnXO.&.O.X.A +.@.[  .q.~ c.R.{ _ ",
"0 w J.H.b T L L p L U X.O.O.*.O.{ X.O.&.p.p.{ a.ZXCXCXCXCXnX&.X.[.CXCXCXCXCXkX{ *.X.].CXCXCXCXCXvX{ &.O.} D +.@.] ..q.` n.L.{ ` ",
"1 < v.J.v t I J u L P +.*.{ [.mX9Xs.o.{ { { ( a.ZXCXCXCXCXbXo.X.[.CXCXCXCXCXNX&.{ ( 9XCXCXCXCXCXjX{ *.&.S A @.9.[ 9.7.~ n.K.( ^ ",
"6 & l.T.P t E P p p P _ *.X.].CXCXZXnXjX9X8X9XNXCXCXCXCXCXrX{ o.oXCXCXCXCXCXCXbX&X9XVXCXCXCXCXCX;X{ &.O.S S @.#.H w.3.^ J.n.~ ' ",
"1 & F W.Z y R L u p J ^ *.X.].CXCXCXCXCXCXCXCXCXCXCXCXCXZX].o.X.].CXCXCXCXCXCXCXCXCXCXCXCXCXCXVXa.o.O.o.S H +.+. .w.' $.U.c.` +.",
"  $ i W.j.- a Y J q s U O.X.].CXZXCXCXCXCXCXCXCXCXCXCXCX9X{ &.X.[.CXCXCXCXCXCXCXZXCXCXCXCXZXCX0X{ &.&.%.S [ @. .] w.` G Y.m.`   ",
"  $ < P.v.< t W J J s J ' %.].ZXCXCXCXCXZXCXCXCXCXCXZX9XX.&.&.X.[.CXCXCXCXVXrXZXCXCXCXCXCXCXnX&.O.O.&.{ A } +.H ~.s./ c.T.$.`   ",
"  * # l.T.u 6 W K u p J Y *.&.oXjXNXCXCXCXCXCXCXNXjX].{ O.O.&.X.[.BXBXBXZXaX( &XmXCXCXCXVXaXp.o.&.%.{ A B  .] } ).i.( S.H.' '   ",
"  = X Z W.F = p Y N q p q +.&.%.{ &.s.*X@X&XoX{.O.{ X.*.=.%.%.&.=.a.a.a.a.%.%.$.%.].&XoXa.X.o.&.O.%.^ V V [ Y [ oX` -.T.z./ X.  ",
"    & : S.v.: 8 I u p 9 u Y %.&.&.&.X.X.{ X.{ X.%.7.,.O.5.2.4.5.5.2.o.2.+.4.7.O.O.{ { { o.&.&.&.&.o.5 4 I K V /.s./ n.L.$.`     ",
"    * # j.W.B - K I q u u 7 ] &.O.&.&.&.&.&.*.O.&.e.h e.e.h r.e.e.e.e.r.h r.e.e.7.*.&.*.&.&.&.O.=.q ; 4 u u p t.` $.F.n.;.;.    ",
"      $ 4 E.v.= > J L 7 9 q 5 o.&.&.&.&.&.&.&.&.O.4.5.,.7.,.,.4.2.7.,.,.4.5.,.e.%.O.&.&.&.&.&.=.Y O ; : 8 > R  .c c.W.-.`       ",
"      * # j.Y.Z * g u K 9 7 4 N %.o.&.&.O.&.&.&.&.%.&.%.O.%.&.&.&.O.%.&.%.%.5.7.%.&.&.O.&.O.*.^ % o O , ; 8 <.0 B E.n.c /       ",
"      = $ w L.G.w : s 9 u 8 7 4 U *.&.&.&.&.&.&.&.&.O.O.%.O.o.O.O.O.O.O.&.&.%.&.O.&.&.&.o.%.o.; o + ; + ; d 6 3 v.T.H z /       ",
"        = # C W.j.* : s 8 7 8 7 3 N *.&.o.&.&.&.&.&.&.&.&.O.&.&.&.&.&.&.%.&.&.&.&.&.%.O.=.+.; o o @ + @ e e . C Y.l.2 l         ",
"          * * v.Y.V $ 4 q r 3 8 7 3 N %.%.&.&.&.&.&.&.&.&.&.&.%.&.O.%.&.&.&.&.&.&.O.O.=.^ ; X o @ o O e r . 4 R.G., =           ",
"          = # 4 L.L.l $ 8 9 g > 8 7 3 4 +.%.&.&.&.&.&.&.&.&.&.&.o.&.&.&.&.&.&.&.O.*.*.V % o o @ + o , d o % A.Y.i . %           ",
"            * # Z W.A.w $ r : r : 9 q 7 4 Y X.%.&.&.&.o.&.&.%.%.&.&.&.&.&.O.&.&.%.^ 4 % O % @ @ X , j + o b.W.C . O             ",
"              * . C W.v.w % 8 6 9 > 9 9 J q N ^ X.&.&.&.&.&.&.%.&.&.&.&.&.&.O.^ P 3 ; ; ; ; % + e j O X b.W.j.. o               ",
"              * * # j.Y.v.w $ > 8 7 > 9 u L R I Y _ +.&.*.&.=.%.&.&.&.o.+.^ U l q 4 : , ; ; O r d X % b.Y.j.X X %               ",
"                * & X j.W.G.V $ : 9 q 8 4 u I Q 6.7.7.9.d.a.'.d.p.p.p.' _ ^ U L q 8 8 : % , d r X : v.W.j.O X %                 ",
"                  * * # Z T.F.C < $ e 9 s u s p W 5.w.oX@X@X@X@X*XoX].q.5.W I p 9 > : : t f > X i J.W.F o X %                   ",
"                    * * # V G.Y.b.N - , i s K L I R Q  .6.8.w.w.9.5. .Q W I p u 9 7 s R r - 3 j.W.P.Z . $ %                     ",
"                      * = # 3 x.Y.L.l.l 0 > t R Q _ Q 5. .5.1.5.5. .W W _ R I p R T f y 6 F J.W.b.4 X % %                       ",
"                          < & & Z A.Y.J.z.^ m t t f R W 5.6... .5.5. ._ W W R T v v U G G.W.J.C = $ *                           ",
"                            1 2 & 2 G G.E.L.n.M.+.2.4.:.:.<.>.>.>.>.4.4.:.3.:.' | b.P.W.J.j.6 & = =                             ",
"                                2 2 2 l C v.L.T.L.K.Z.Z.M.|.d.>X>Xa.|.M.M.B.H.F.Y.E.v.C q 1 1 3                                 ",
"                                  k k k k 0 ( z.c.G.U.T.F.T.F.F.F.F.F.T.T.U.J.v.m.N v 0 0 q 0                                   ",
"                                        z ~ ) ) _ 3.M.#.|.N.V.V.V.V.Z.Z.| =._ n ) v U v                                         ",
"                                            ` ' u.i.u.q.f.4.u.d.d.f.u.u.3.3.3.) ) _                                             ",
"                                                    u.d.d.d.d.d.f.f.f.i.i.7.                                                    "
};
