/* XPM */
static char *_f4866c9513b46b9ac2b07365ccc5de4As2KOD1MZX4MzlSW[] = {
/* columns rows colors chars-per-pixel */
"16 16 205 2 ",
"   c None",
".  c #173909",
"X  c #153A08",
"o  c #1E4015",
"O  c #255713",
"+  c #2C5F16",
"@  c #3C6306",
"#  c #376806",
"$  c #36670B",
"%  c #32700D",
"&  c #3F730C",
"*  c #316716",
"=  c #346B16",
"-  c #3D6718",
";  c #326F1A",
":  c #3E6B1C",
">  c #37711E",
",  c #3A6F21",
"<  c #436A05",
"1  c #477409",
"2  c #427213",
"3  c #457919",
"4  c #467E2B",
"5  c #3B801C",
"6  c #529D1C",
"7  c #61910C",
"8  c #6E9A0D",
"9  c #71900D",
"0  c #74990F",
"q  c #6C9A15",
"w  c #74A10E",
"e  c #75A10E",
"r  c #68A214",
"t  c #76A511",
"y  c #71AA11",
"u  c #75AE16",
"i  c #7CAF1D",
"p  c #7ABF1E",
"a  c #488A29",
"s  c #4A8F28",
"d  c #498E2E",
"f  c #5E9222",
"g  c #559A26",
"h  c #57912B",
"j  c #50912C",
"k  c #57952F",
"l  c #5A9B2A",
"z  c #5FA623",
"x  c #58A427",
"c  c #5EAF22",
"v  c #5DB226",
"b  c #5FA63B",
"n  c #5FAE3D",
"m  c #5FB03A",
"M  c #63AF28",
"N  c #7AAE20",
"B  c #75AE29",
"V  c #70A92C",
"C  c #62B022",
"Z  c #62B522",
"A  c #63B02A",
"S  c #60BD2A",
"D  c #64BB2E",
"F  c #64BE2D",
"G  c #61AA30",
"H  c #63AE31",
"J  c #6FAF3A",
"K  c #76AC31",
"L  c #6DB130",
"P  c #67BC30",
"I  c #6ABE37",
"U  c #63B33A",
"Y  c #6CB23A",
"T  c #6BBF38",
"R  c #71BF32",
"E  c #7ABD37",
"W  c #72B53A",
"Q  c #72B23D",
"!  c #77B23C",
"~  c #7AB43D",
"^  c #72BB38",
"/  c #71BB3B",
"(  c #6CC511",
")  c #65C12E",
"_  c #7FC220",
"`  c #7ACC24",
"'  c #69C533",
"]  c #68C036",
"[  c #6CC035",
"{  c #6EC236",
"}  c #6DC434",
"|  c #6FC437",
" . c #6FC537",
".. c #6CC139",
"X. c #6CC338",
"o. c #6FC339",
"O. c #6FC538",
"+. c #6FC03D",
"@. c #6FC13E",
"#. c #5AA740",
"$. c #62A642",
"%. c #77AE4F",
"&. c #66B245",
"*. c #6CB847",
"=. c #7BB341",
"-. c #75BF40",
";. c #7EB854",
":. c #74B75A",
">. c #77B762",
",. c #73C242",
"<. c #76C645",
"1. c #79C54B",
"2. c #77C250",
"3. c #7FC753",
"4. c #85C317",
"5. c #87CB20",
"6. c #85CC21",
"7. c #8ACC22",
"8. c #8ECB27",
"9. c #91C92C",
"0. c #92CF2C",
"q. c #8DD22F",
"w. c #93D122",
"e. c #83CA30",
"r. c #8DC23E",
"t. c #91CE33",
"y. c #92C934",
"u. c #9BCF38",
"i. c #8AD234",
"p. c #95DA3A",
"a. c #95DC3A",
"s. c #A4D338",
"d. c #85B651",
"f. c #85B858",
"g. c #83BA5E",
"h. c #80B96F",
"j. c #87BD72",
"k. c #81CF52",
"l. c #80C854",
"z. c #84CD55",
"x. c #8FC45C",
"c. c #83C959",
"v. c #85CA5B",
"b. c #87CB5F",
"n. c #90C25A",
"m. c #A0D547",
"M. c #ABDC46",
"N. c #A6D749",
"B. c #ABDB4E",
"V. c #B1DD42",
"C. c #A8D55E",
"Z. c #B1E14B",
"A. c #B3E755",
"S. c #BBE253",
"D. c #B9E951",
"F. c #BFEF58",
"G. c #89CB62",
"H. c #8CCD65",
"J. c #95C26A",
"K. c #95CC6C",
"L. c #99CE6F",
"P. c #93D06E",
"I. c #94D06F",
"U. c #94D56D",
"Y. c #92CC70",
"T. c #95D170",
"R. c #9ED47C",
"E. c #9FD57E",
"W. c #A5D576",
"Q. c #C3E95E",
"!. c #CAE766",
"~. c #CBE76A",
"^. c #A5D380",
"/. c #A3D785",
"(. c #A1D38A",
"). c #AED68F",
"_. c #A8D98B",
"`. c #ACDB91",
"'. c #BBD3AC",
"]. c #C2DE85",
"[. c #C0DBA0",
"{. c #C5E5B1",
"}. c #C7E6B4",
"|. c #C7E6B5",
" X c #CAE8B8",
".X c #C3CFC4",
"XX c #D2EBC3",
"oX c #D7EFC7",
"OX c #D8EECB",
"+X c #D8EDCC",
"@X c #D9EECD",
"#X c #DEF0D2",
"$X c #DEF1D4",
"%X c #DFF1D4",
"&X c #E0F1D6",
"*X c #E6F4DE",
"=X c #E7F4DF",
"-X c #E7F3E1",
";X c #EFF7EA",
":X c #F2F9ED",
">X c #F4FCED",
",X c #F5FCEE",
"<X c #F4FAF1",
"1X c #F7FBF5",
"2X c white",
/* pixels */
"          Z.D.Q.Q.!.~.          ",
"      t.V.C.W.^._.'.].S.D.      ",
"    5.u.;.f.n.x.L.[..X_.B.M.    ",
"  ( 0.b L R I X.) O.L.j.j.N.m.  ",
"  w.Y C { b.3.I E.P.F / d.g.s.  ",
"r B 4 / $X;X1XH.#X XF ] ^ %.r.y.",
"p l ; G.2X`.1.T @X*X*X{.D Q ~ 9.",
"_ k a X.}.2XXX@.&XOX_.2Xl.M Q 9.",
"u l s <.@.T.2X/.OX}.c.2Xv.c W 7.",
"7 f > T.<X$X>Xz.oX,X:X-XX.A E 6.",
"1 q > G U.R.:.b h.>.K.k.g j i.` ",
"  8 3 = v ) U &.n n ' x X 2 4.  ",
"  $ e + * H O.{ | | g X . 9 @   ",
"    & e 2 , $.2.*.d O - 0 <     ",
"      % y i K =.! V N t $       ",
"          Z i.p.p.e.M           "
};
