/* XPM */
static char *aa0f16dffb9d4e22b14520eff72e6a7anl5KZ2A9ELGamxGy[] = {
/* columns rows colors chars-per-pixel */
"32 32 222 2 ",
"   c None",
".  c #122E03",
"X  c #003204",
"o  c #003C0B",
"O  c #193C07",
"+  c #0B320A",
"@  c #01430B",
"#  c #1C4109",
"$  c #16540C",
"%  c #1B5B0E",
"&  c #1A4716",
"*  c #025710",
"=  c #29570C",
"-  c #26591A",
";  c #156916",
":  c #117516",
">  c #28620E",
",  c #2F6217",
"<  c #336413",
"1  c #34661D",
"2  c #3C6D1A",
"3  c #376A17",
"4  c #2F7311",
"5  c #3F7619",
"6  c #32670C",
"7  c #2A5523",
"8  c #294E22",
"9  c #39782A",
"0  c #327E30",
"q  c #366B23",
"w  c #477C0D",
"e  c #447A18",
"r  c #417224",
"t  c #437C24",
"y  c #447D28",
"u  c #388F1A",
"i  c #25AB1C",
"p  c #258323",
"a  c #3E8232",
"s  c #388D25",
"d  c #3CB231",
"f  c #57860C",
"g  c #46881A",
"h  c #4C961F",
"j  c #59991D",
"k  c #759D0E",
"l  c #59A51B",
"z  c #48B218",
"x  c #58B71E",
"c  c #53B518",
"v  c #75A414",
"b  c #6EAA14",
"n  c #4B8123",
"m  c #4A8D25",
"M  c #4A832B",
"N  c #48892C",
"B  c #538B28",
"V  c #4C9A24",
"C  c #57982B",
"Z  c #498936",
"A  c #4A9A36",
"S  c #569539",
"D  c #558933",
"F  c #639C3A",
"G  c #58A629",
"H  c #5CB924",
"J  c #5FB928",
"K  c #5BB429",
"L  c #5BAB38",
"P  c #5AB536",
"I  c #4AAD38",
"U  c #64A82A",
"Y  c #61B422",
"T  c #63BC2C",
"R  c #69B72A",
"E  c #6EAC3B",
"W  c #69A937",
"Q  c #6DB331",
"!  c #66BD31",
"~  c #6ABE35",
"^  c #6CBF3A",
"/  c #66B539",
"(  c #76B839",
")  c #78AF3F",
"_  c #66C318",
"`  c #68C12A",
"'  c #6CC235",
"]  c #6DC13A",
"[  c #67C43A",
"{  c #71C53C",
"}  c #79C23A",
"|  c #3FA542",
" . c #589948",
".. c #538F5E",
"X. c #579856",
"o. c #4D9546",
"O. c #619D42",
"+. c #5BAB42",
"@. c #5BA748",
"#. c #53AF4C",
"$. c #63AC4B",
"%. c #69AD48",
"&. c #68B445",
"*. c #7BB443",
"=. c #7ABD43",
"-. c #74B646",
";. c #67B858",
":. c #70AF56",
">. c #77B868",
",. c #6EBA6A",
"<. c #5CC351",
"1. c #73C442",
"2. c #7AC54C",
"3. c #78CA46",
"4. c #67C752",
"5. c #7EC651",
"6. c #6CCA51",
"7. c #86A70D",
"8. c #8CB40F",
"9. c #A3BD0A",
"0. c #98C916",
"q. c #9CD716",
"w. c #A5C40D",
"e. c #B4D50F",
"r. c #BED90D",
"t. c #A7D616",
"y. c #B5DC15",
"u. c #B8DA16",
"i. c #B0CF0F",
"p. c #B9E215",
"a. c #9ACD26",
"s. c #89C435",
"d. c #93D335",
"f. c #8CCE27",
"g. c #A8D824",
"h. c #B7DE23",
"j. c #A9D434",
"k. c #BCE524",
"l. c #C0DB10",
"z. c #C5E10F",
"x. c #C7E616",
"c. c #D0EC18",
"v. c #C1DF23",
"b. c #C2DC31",
"n. c #C4EB22",
"m. c #C6E826",
"M. c #D3EE2F",
"N. c #C5E636",
"B. c #CDED33",
"V. c #82BB4B",
"C. c #81B349",
"Z. c #8ABA5A",
"A. c #87B956",
"S. c #90BE5B",
"D. c #8EBB63",
"F. c #88C546",
"G. c #85C959",
"H. c #94CE5B",
"J. c #97C957",
"K. c #95CC46",
"L. c #A7D744",
"P. c #A7D857",
"I. c #BBEE5F",
"U. c #8BCD63",
"Y. c #8CC96D",
"T. c #96C56A",
"R. c #94D16E",
"E. c #98D463",
"W. c #86C874",
"Q. c #9CC977",
"!. c #95D171",
"~. c #9DD47B",
"^. c #99D275",
"/. c #8ED067",
"(. c #A2CC78",
"). c #A1D67A",
"_. c #9DE079",
"`. c #BAEB64",
"'. c #ACE76F",
"]. c #C6EA41",
"[. c #D3ED4B",
"{. c #C3DE74",
"}. c #C8EB76",
"|. c #C2EF67",
" X c #97D28D",
".X c #90D08A",
"XX c #A2D682",
"oX c #A4D885",
"OX c #A9DA8C",
"+X c #ABD389",
"@X c #B4DB9A",
"#X c #ADD492",
"$X c #9FE080",
"%X c #9AE198",
"&X c #B7E19D",
"*X c #AAE290",
"=X c #BBD6A7",
"-X c #B9DDB8",
";X c #B1D4A2",
":X c #ABE6A5",
">X c #BBE2A4",
",X c #BDE3AA",
"<X c #B0E1AE",
"1X c #C8EC8E",
"2X c #C3DBAC",
"3X c #C3CBBA",
"4X c #C7D8BE",
"5X c #C1E4AC",
"6X c #C0E7A4",
"7X c #CAE8B9",
"8X c #C8E8B3",
"9X c #C5DFC8",
"0X c #D7EDC9",
"qX c #DCEFD1",
"wX c #DEF1D3",
"eX c #E5F3DD",
"rX c #EBF6E5",
"tX c #EEF7E8",
"yX c #F6FAF3",
"uX c #F9FBF6",
"iX c #FEFFFE",
"pX c #F0F8EA",
/* pixels */
"                        _.'.`.`.|.}.1X7X                        ",
"                  W.P.N.m.B.B.].].N.N.B.[.}.,X                  ",
"              ;.L.x.v.P.*X@X:X:X<X-X-X2X{.b.M.`.%X              ",
"            &.h.m.P. X X~.T.T.T.(.+X>X4X9X-X(.k.B._.            ",
"          ' x.j.W.T.A.C.A.Z.T.T.Q.(.#X=X3X3X;X%XL.x.E.          ",
"        H x.s.,.*.U *.S.J.J.H.H.E.).@X4X3X;X+X(..XP.c.E.        ",
"      z r.d.;.U G V.F.} } ] ~ ' ' ] 1.!.;X+XQ.T.D..XE.x.Y.      ",
"    i q.g.;.U l =.} ~ ] ] ] ^ ^ ] [ ~ T Q G.T.S.D.Z..Xj.k.,.    ",
"    _ x.4.W l } ` T ! T T ' [ ^ ^ ^ ^ ^ ] / 1.*.A.Z.D.>.x.K.    ",
"  p t.d.%.j ( R Y 3.R.~.!.5.^ T @XtXrXU.T { [ { *.Z.C.>.F.m.,.  ",
"  g u.@.M C Q H OXyXiXiXiXuX5XH 5XiXiX!.~ ] { ^ ^ *.A.*.>.h.F.  ",
"  8.0.0 e D G U.iXiXuXtXyXiX>XH 5XiXiX/.H { T ! ] Q V.) :.a.g.  ",
"p t.~ 9 r t K @XiXiX*XT 5.OX2.Y 5XiXuX).7XtX7X2.~ ~ ) *.$.s.u.@.",
"s y.P 9 r m T OXiXiXeX^.T H ^ T ,XiXuXyXiXuXiXqX~ ~ Q =.F %.y.&.",
"V p.I y 9 C [ 2.tXiXiXiXeX^.! T 5XiXiX0XR.rXiXiXG.! U ( W +.y.^ ",
"V p.A Z r G { ! G.qXiXiXiXiXXXH 5XiXiX!.c >XiXiXXXT R Q W +.p.( ",
"u y.A M y G { / T ! !.0XiXiXwXJ 5XiXiXR.H @XiXiXoXT Y Q E +.p.R ",
"4 e.m M t G ' /.U.! H 1.yXiXrXT ,XiXiXoXc 7XiXiX^.! Y Q E / p.T ",
"$ w.B n t C T ,XiXqX7XqXuXiX7XH ,XiXiXpX7XuXiXuX5.! x Q %.~ y.P ",
"@ 8.v 0 n M J >XiXiXiXiXiXeX2.J 5XiXyXrXiXiXiX>X! ' Y Q &.f.t.d ",
"  f w.q m e G 2. X6X5X5XXX] ' ' !.6X).{ @X8XoX~ ] l C E ;.t.f.  ",
"  $ i.5 t e t ! T T T T L ..X.X.X.o.X.@.T T T ] T 6 e O.[ p.`   ",
"  o k 8.- t < h { { ' { &.&.$.@.&.$.$.X.^ ] { ] = O < y q.q.d   ",
"    $ z.w 1 2 = h { ^ ~ { ' ' ] ' ' ' ' ^ ] ] < . O - 3 z.u     ",
"    o w z.= 1 1 > g ! ] ^ ^ ^ ^ ^ ^ ^ ^ ] P = . O 8 O i.w +     ",
"      o k e.$ , 3 , g L ~ ~ ~ ^ ^ ^ [ ! V = # # 8 & 9.7..       ",
"        @ 7.y.% - 3 e B W =.3.1.1.] W m 6 = = 7 & 9.8.X         ",
"          @ k z.f - 1 M S -.G.U.5.%.C t 2 1 7 e l.7.X           ",
"            @ g r.t.j y y S O.@. .S S a a C 9.r.f X             ",
"              * ; b e.p.a.s.=.3.=.( s.a.u.e.v > @               ",
"                  : u R d.h.k.n.n.k.t.a.U s ;                   ",
"                        #.<.6.6.6.<.#.|                         "
};
